<svg width="180" height="60" viewBox="0 0 180 60" fill="none" xmlns="http://www.w3.org/2000/svg">
<path d="M39.936 23.696C38.912 24.048 37.968 24.368 37.104 24.656C36.24 24.944 35.248 25.28 34.128 25.664C33.68 25.824 33.248 25.872 32.832 25.808C32.416 25.744 32.032 25.632 31.68 25.472C31.744 27.552 31.904 29.376 32.16 30.944C32.416 32.48 32.672 33.856 32.928 35.072C32.992 35.328 32.944 35.6 32.784 35.888C32.656 36.144 32.384 36.24 31.968 36.176C31.616 36.112 31.248 35.952 30.864 35.696C30.48 35.408 30.208 35.024 30.048 34.544C29.6 33.328 29.248 32.016 28.992 30.608C28.768 29.168 28.624 27.712 28.56 26.24C28.496 24.768 28.496 23.328 28.56 21.92C28.624 20.512 28.736 19.2 28.896 17.984C28.992 17.312 29.152 16.832 29.376 16.544C29.6 16.256 29.824 16.112 30.048 16.112C30.784 16.112 31.296 16.464 31.584 17.168C31.872 17.872 31.984 18.624 31.92 19.424C31.856 20.128 31.808 20.8 31.776 21.44C31.744 22.08 31.712 22.72 31.68 23.36C32.704 22.848 33.92 22.416 35.328 22.064C36.768 21.68 38.256 21.376 39.792 21.152C41.104 20.96 41.776 21.136 41.808 21.68C41.872 22.128 41.712 22.544 41.328 22.928C40.944 23.28 40.48 23.536 39.936 23.696ZM17.568 22.496C17.408 23.232 17.28 24 17.184 24.8C17.088 25.6 17.024 26.384 16.992 27.152C16.96 27.92 16.96 28.656 16.992 29.36C17.024 30.064 17.072 30.672 17.136 31.184C18.224 30.832 19.408 30.192 20.688 29.264C22 28.304 23.2 27.28 24.288 26.192C24.576 25.872 24.848 25.632 25.104 25.472C25.392 25.28 25.664 25.264 25.92 25.424C25.952 25.456 25.968 25.568 25.968 25.76C25.968 25.952 25.936 26.176 25.872 26.432C25.84 26.688 25.76 26.96 25.632 27.248C25.536 27.536 25.392 27.792 25.2 28.016C24.144 29.456 23.072 30.656 21.984 31.616C20.896 32.576 19.712 33.408 18.432 34.112C17.92 34.4 17.392 34.56 16.848 34.592C16.336 34.624 15.904 34.464 15.552 34.112C14.88 33.408 14.432 32.464 14.208 31.28C13.984 30.064 13.888 28.832 13.92 27.584C13.952 26.336 14.064 25.184 14.256 24.128C14.48 23.04 14.672 22.256 14.832 21.776C14.96 21.424 15.136 21.184 15.36 21.056C15.584 20.928 15.824 20.848 16.08 20.816C16.528 20.784 16.912 20.944 17.232 21.296C17.552 21.648 17.664 22.048 17.568 22.496ZM61.6955 36.32C60.4795 36.416 59.3275 36.528 58.2395 36.656C57.1835 36.784 56.1275 36.928 55.0715 37.088C54.0155 37.216 52.9275 37.36 51.8075 37.52C50.7195 37.68 49.5675 37.856 48.3515 38.048C47.6475 38.144 47.0395 38.096 46.5275 37.904C46.0155 37.712 45.7115 37.424 45.6155 37.04C45.3915 36.24 45.9355 35.664 47.2475 35.312C47.8235 35.184 48.4315 35.072 49.0715 34.976C49.7115 34.848 50.3515 34.736 50.9915 34.64C51.3115 33.808 51.6795 32.768 52.0955 31.52C52.5435 30.24 52.7995 29.04 52.8635 27.92C52.1595 28.048 51.4075 28.192 50.6075 28.352C49.8075 28.512 48.9915 28.624 48.1595 28.688C47.7435 28.72 47.3275 28.72 46.9115 28.688C46.5275 28.624 46.1755 28.496 45.8555 28.304C45.5675 28.08 45.3275 27.776 45.1355 27.392C44.9755 27.008 44.8955 26.512 44.8955 25.904C44.8955 25.424 44.9435 24.88 45.0395 24.272C45.1355 23.664 45.2475 23.04 45.3755 22.4C45.5355 21.728 45.7115 21.072 45.9035 20.432C46.0955 19.76 46.2875 19.152 46.4795 18.608C46.2555 18.64 46.0475 18.672 45.8555 18.704C45.6635 18.704 45.4715 18.704 45.2795 18.704C44.5435 18.768 44.0315 18.608 43.7435 18.224C43.4555 17.84 43.3115 17.456 43.3115 17.072C43.3115 16.464 43.7595 16.064 44.6555 15.872C45.7755 15.616 46.9915 15.392 48.3035 15.2C49.6155 15.008 50.8475 14.88 51.9995 14.816C52.6075 14.752 53.1355 14.816 53.5835 15.008C54.0315 15.2 54.2715 15.568 54.3035 16.112C54.3355 16.592 54.1595 16.944 53.7755 17.168C53.4235 17.392 53.1035 17.536 52.8155 17.6C51.8555 17.792 50.7995 17.984 49.6475 18.176C49.2955 19.328 48.9595 20.592 48.6395 21.968C48.3515 23.344 48.1755 24.528 48.1115 25.52C48.9115 25.456 49.8235 25.328 50.8475 25.136C51.8715 24.944 52.7515 24.8 53.4875 24.704C54.6075 24.544 55.4235 24.736 55.9355 25.28C56.4475 25.792 56.6235 26.464 56.4635 27.296C56.3675 27.712 56.2395 28.208 56.0795 28.784C55.9515 29.36 55.7755 29.968 55.5515 30.608C55.3595 31.216 55.1355 31.84 54.8795 32.48C54.6555 33.088 54.4315 33.648 54.2075 34.16C56.5435 33.872 59.0715 33.68 61.7915 33.584C62.2715 33.584 62.6875 33.696 63.0395 33.92C63.4235 34.144 63.6155 34.432 63.6155 34.784C63.6155 35.232 63.3915 35.584 62.9435 35.84C62.5275 36.096 62.1115 36.256 61.6955 36.32Z" fill="black"/>
<path d="M95.968 20.432C95.904 20.656 95.664 20.816 95.248 20.912C94.864 20.976 94.464 21.04 94.048 21.104C92.96 21.2 91.824 21.408 90.64 21.728C89.488 22.016 88.448 22.32 87.52 22.64C87.296 22.704 87.072 22.768 86.848 22.832C86.624 22.864 86.384 22.848 86.128 22.784C86.224 24.224 86.336 25.6 86.464 26.912C86.592 28.224 86.736 29.424 86.896 30.512C86.96 30.864 86.88 31.216 86.656 31.568C86.432 31.888 86.08 32.08 85.6 32.144C85.312 32.176 85.056 32.096 84.832 31.904C84.64 31.712 84.464 31.472 84.304 31.184C84.176 30.896 84.064 30.592 83.968 30.272C83.872 29.952 83.808 29.68 83.776 29.456C83.616 28.752 83.472 27.728 83.344 26.384C83.216 25.008 83.12 23.52 83.056 21.92C82.992 20.32 82.96 18.688 82.96 17.024C82.96 15.328 83.024 13.824 83.152 12.512C83.216 11.808 83.392 11.328 83.68 11.072C83.968 10.816 84.256 10.704 84.544 10.736C84.768 10.736 84.976 10.816 85.168 10.976C85.392 11.104 85.584 11.28 85.744 11.504C85.904 11.728 86.016 11.968 86.08 12.224C86.176 12.448 86.208 12.656 86.176 12.848C86.048 13.968 85.968 15.136 85.936 16.352C85.936 17.536 85.968 18.736 86.032 19.952C86.064 19.952 86.096 19.936 86.128 19.904C87.056 19.424 88.192 19.024 89.536 18.704C90.912 18.384 92.4 18.288 94 18.416C94.576 18.448 95.088 18.672 95.536 19.088C95.984 19.472 96.128 19.92 95.968 20.432ZM75.664 23.744C75.888 24.672 75.92 25.6 75.76 26.528C75.632 27.424 75.344 28.288 74.896 29.12C74.48 29.92 73.952 30.656 73.312 31.328C72.672 31.968 71.968 32.496 71.2 32.912C70.624 33.232 70.048 33.44 69.472 33.536C68.896 33.6 68.288 33.456 67.648 33.104C67.136 32.848 66.736 32.512 66.448 32.096C66.192 31.68 66.032 31.248 65.968 30.8C65.904 30.096 65.968 29.312 66.16 28.448C66.352 27.584 66.64 26.736 67.024 25.904C67.408 25.04 67.856 24.224 68.368 23.456C68.88 22.688 69.424 22.016 70 21.44C70.256 21.216 70.512 21.04 70.768 20.912C71.024 20.784 71.312 20.752 71.632 20.816C71.952 20.88 72.24 21.056 72.496 21.344C72.752 21.6 72.912 21.856 72.976 22.112C73.584 22.112 74.144 22.256 74.656 22.544C75.168 22.8 75.504 23.2 75.664 23.744ZM81.472 35.456C81.376 36.224 81.296 37.088 81.232 38.048C81.168 38.976 81.136 39.84 81.136 40.64C81.84 40.448 82.624 40.16 83.488 39.776C84.352 39.36 85.216 38.912 86.08 38.432C86.944 37.952 87.776 37.456 88.576 36.944C89.376 36.432 90.064 35.984 90.64 35.6C91.344 35.12 91.904 34.8 92.32 34.64C92.736 34.448 93.024 34.496 93.184 34.784C93.312 34.976 93.344 35.232 93.28 35.552C93.248 35.872 93.168 36.192 93.04 36.512C92.912 36.832 92.752 37.136 92.56 37.424C92.368 37.712 92.208 37.936 92.08 38.096C91.504 38.704 90.752 39.344 89.824 40.016C88.928 40.656 87.968 41.264 86.944 41.84C85.952 42.384 84.976 42.864 84.016 43.28C83.088 43.664 82.288 43.888 81.616 43.952C80.496 44.08 79.584 43.984 78.88 43.664C78.208 43.344 77.808 42.528 77.68 41.216C77.648 41.024 77.632 40.736 77.632 40.352C77.664 39.936 77.696 39.472 77.728 38.96C77.76 38.448 77.808 37.92 77.872 37.376C77.968 36.832 78.08 36.304 78.208 35.792C78.4 35.024 78.624 34.368 78.88 33.824C79.168 33.28 79.52 33.04 79.936 33.104C80.288 33.168 80.64 33.424 80.992 33.872C81.376 34.32 81.536 34.848 81.472 35.456ZM72.64 23.216C72.128 23.632 71.664 24.144 71.248 24.752C70.864 25.36 70.528 26.016 70.24 26.72C69.952 27.392 69.728 28.08 69.568 28.784C69.408 29.488 69.312 30.144 69.28 30.752C69.632 30.592 70.08 30.224 70.624 29.648C71.2 29.072 71.712 28.368 72.16 27.536C72.576 26.768 72.816 26.016 72.88 25.28C72.944 24.544 72.864 23.856 72.64 23.216ZM124.88 29.456C124.752 29.872 124.512 30.368 124.16 30.944C123.84 31.488 123.472 32.048 123.056 32.624C122.64 33.168 122.208 33.696 121.76 34.208C121.312 34.72 120.912 35.136 120.56 35.456C120.784 35.392 121.088 35.328 121.472 35.264C121.888 35.2 122.304 35.168 122.72 35.168C123.168 35.168 123.584 35.2 123.968 35.264C124.352 35.296 124.64 35.408 124.832 35.6C125.184 36.016 125.36 36.48 125.36 36.992C125.36 37.504 125.184 38.032 124.832 38.576C124.608 38.96 124.288 39.44 123.872 40.016C123.488 40.592 123.072 41.2 122.624 41.84C122.176 42.448 121.712 43.056 121.232 43.664C120.784 44.24 120.4 44.72 120.08 45.104C120.656 44.912 121.312 44.688 122.048 44.432C122.784 44.208 123.536 43.984 124.304 43.76C125.072 43.504 125.808 43.28 126.512 43.088C127.216 42.864 127.84 42.704 128.384 42.608C128.608 42.576 128.864 42.544 129.152 42.512C129.472 42.448 129.76 42.448 130.016 42.512C130.304 42.544 130.544 42.64 130.736 42.8C130.928 42.928 131.024 43.152 131.024 43.472C131.024 43.856 130.944 44.224 130.784 44.576C130.624 44.96 130.384 45.184 130.064 45.248C129.392 45.408 128.64 45.6 127.808 45.824C126.976 46.08 126.128 46.336 125.264 46.592C124.4 46.88 123.52 47.168 122.624 47.456C121.728 47.776 120.88 48.08 120.08 48.368C119.792 48.464 119.456 48.528 119.072 48.56C118.688 48.624 118.288 48.624 117.872 48.56C117.488 48.528 117.104 48.432 116.72 48.272C116.336 48.112 116.032 47.856 115.808 47.504C115.36 46.928 115.248 46.4 115.472 45.92C115.728 45.44 116.032 45.04 116.384 44.72C116.608 44.496 116.992 44.064 117.536 43.424C118.08 42.784 118.64 42.096 119.216 41.36C119.792 40.624 120.336 39.92 120.848 39.248C121.36 38.576 121.712 38.064 121.904 37.712C121.616 37.744 121.264 37.808 120.848 37.904C120.432 37.968 120 38.064 119.552 38.192C119.136 38.288 118.736 38.4 118.352 38.528C117.968 38.624 117.664 38.688 117.44 38.72C116.992 38.816 116.608 38.72 116.288 38.432C115.968 38.144 115.808 37.792 115.808 37.376C115.808 37.152 115.856 36.928 115.952 36.704C116.08 36.448 116.288 36.192 116.576 35.936C116.896 35.648 117.296 35.264 117.776 34.784C118.256 34.304 118.736 33.776 119.216 33.2C119.728 32.624 120.208 32.016 120.656 31.376C121.104 30.704 121.456 30.048 121.712 29.408C121.392 29.408 121.008 29.44 120.56 29.504C120.144 29.568 119.696 29.648 119.216 29.744C118.768 29.84 118.32 29.952 117.872 30.08C117.456 30.208 117.104 30.336 116.816 30.464C116.368 30.656 115.952 30.704 115.568 30.608C115.216 30.48 114.96 30.192 114.8 29.744C114.704 29.456 114.704 29.2 114.8 28.976C114.896 28.752 115.04 28.544 115.232 28.352C115.424 28.16 115.632 28 115.856 27.872C116.08 27.744 116.272 27.648 116.432 27.584C116.88 27.392 117.376 27.232 117.92 27.104C118.464 26.944 119.008 26.832 119.552 26.768C120.096 26.672 120.624 26.608 121.136 26.576C121.648 26.544 122.112 26.528 122.528 26.528C123.424 26.528 124.096 26.832 124.544 27.44C124.992 28.048 125.104 28.72 124.88 29.456ZM103.232 27.68C102.304 27.808 101.632 27.648 101.216 27.2C100.8 26.72 100.512 26.016 100.352 25.088C100.192 24.288 100.08 23.408 100.016 22.448C99.9523 21.488 99.9203 20.56 99.9203 19.664C99.9523 18.768 100 17.936 100.064 17.168C100.128 16.4 100.224 15.776 100.352 15.296V15.152C100.096 15.216 99.8563 15.264 99.6323 15.296C99.4403 15.328 99.2323 15.376 99.0083 15.44C98.5923 15.504 98.2243 15.44 97.9043 15.248C97.5843 15.024 97.3443 14.768 97.1843 14.48C97.0243 14.128 97.0403 13.728 97.2323 13.28C97.4243 12.8 97.7443 12.48 98.1923 12.32C98.7043 12.128 99.3923 11.952 100.256 11.792C101.152 11.6 102.112 11.456 103.136 11.36C104.16 11.264 105.184 11.232 106.208 11.264C107.264 11.264 108.176 11.344 108.944 11.504C109.296 11.6 109.616 11.776 109.904 12.032C110.192 12.256 110.304 12.544 110.24 12.896C110.176 13.216 109.984 13.488 109.664 13.712C109.376 13.904 109.056 14 108.704 14C107.872 14.064 106.912 14.16 105.824 14.288C104.768 14.416 103.712 14.576 102.656 14.768C102.88 15.28 102.992 15.792 102.992 16.304C102.928 17.648 102.896 19.088 102.896 20.624C102.928 22.128 103.024 23.456 103.184 24.608C104.464 24.16 105.696 23.648 106.88 23.072C108.096 22.496 109.392 21.776 110.768 20.912C111.248 20.592 111.664 20.432 112.016 20.432C112.4 20.4 112.672 20.608 112.832 21.056C112.96 21.408 112.896 21.76 112.64 22.112C112.384 22.432 112.048 22.784 111.632 23.168C111.024 23.712 110.32 24.256 109.52 24.8C108.752 25.312 107.968 25.776 107.168 26.192C106.4 26.576 105.664 26.912 104.96 27.2C104.256 27.456 103.68 27.616 103.232 27.68ZM120.272 14.816C120.112 16.32 120.016 17.728 119.984 19.04C119.984 20.352 119.984 21.744 119.984 23.216C119.984 23.664 119.792 23.952 119.408 24.08C119.024 24.208 118.72 24.272 118.496 24.272C118.24 24.272 117.984 24.144 117.728 23.888C117.472 23.632 117.312 23.408 117.248 23.216C117.12 22.8 117.024 22.288 116.96 21.68C116.928 21.04 116.912 20.384 116.912 19.712C116.912 19.008 116.928 18.304 116.96 17.6C116.992 16.864 117.024 16.176 117.056 15.536C116.544 15.696 115.968 15.904 115.328 16.16C114.72 16.416 114.112 16.688 113.504 16.976C112.896 17.264 112.32 17.552 111.776 17.84C111.264 18.096 110.848 18.304 110.528 18.464C110.08 18.688 109.616 18.752 109.136 18.656C108.688 18.56 108.368 18.272 108.176 17.792C108.048 17.504 108.096 17.168 108.32 16.784C108.576 16.368 108.88 16.048 109.232 15.824C109.744 15.504 110.336 15.184 111.008 14.864C111.712 14.512 112.416 14.192 113.12 13.904C113.856 13.584 114.592 13.28 115.328 12.992C116.096 12.704 116.816 12.464 117.488 12.272C118 12.144 118.432 12.128 118.784 12.224C119.168 12.32 119.472 12.496 119.696 12.752C119.92 13.008 120.08 13.328 120.176 13.712C120.272 14.064 120.304 14.432 120.272 14.816ZM125.504 24.656C124.96 24.656 124.544 24.352 124.256 23.744C123.968 23.136 123.792 22.512 123.728 21.872C123.536 19.856 123.472 18 123.536 16.304C123.6 14.608 123.712 12.8 123.872 10.88C123.936 10.336 124.096 9.904 124.352 9.584C124.608 9.232 124.944 9.088 125.36 9.152C125.808 9.216 126.192 9.488 126.512 9.968C126.832 10.448 126.96 11.12 126.896 11.984C126.832 12.912 126.768 13.792 126.704 14.624C126.672 15.424 126.64 16.256 126.608 17.12C126.608 17.952 126.592 18.832 126.56 19.76C126.56 20.656 126.592 21.648 126.656 22.736C126.688 23.216 126.608 23.664 126.416 24.08C126.256 24.464 125.952 24.656 125.504 24.656ZM154.112 31.808C153.632 31.808 153.232 31.6 152.912 31.184C152.624 30.736 152.48 30.16 152.48 29.456C152.416 28.112 152.416 26.336 152.48 24.128C151.296 24.448 150.144 24.8 149.024 25.184C147.936 25.568 146.784 25.952 145.568 26.336C144.992 26.496 144.464 26.512 143.984 26.384C143.536 26.224 143.248 25.984 143.12 25.664C142.896 25.152 143.024 24.688 143.504 24.272C143.696 24.08 143.936 23.904 144.224 23.744C144.544 23.584 144.848 23.44 145.136 23.312C146.192 22.896 147.36 22.496 148.64 22.112C149.92 21.696 151.248 21.312 152.624 20.96C152.688 19.744 152.768 18.688 152.864 17.792C152.96 16.896 153.056 16.128 153.152 15.488C153.184 15.296 153.232 15.072 153.296 14.816C153.36 14.528 153.44 14.272 153.536 14.048C153.632 13.824 153.76 13.632 153.92 13.472C154.08 13.312 154.288 13.232 154.544 13.232C154.992 13.264 155.392 13.472 155.744 13.856C156.096 14.24 156.256 14.624 156.224 15.008C156.064 15.776 155.936 16.864 155.84 18.272C155.776 19.648 155.696 21.088 155.6 22.592C155.536 24.064 155.472 25.504 155.408 26.912C155.376 28.288 155.344 29.36 155.312 30.128C155.248 30.864 155.104 31.328 154.88 31.52C154.688 31.712 154.432 31.808 154.112 31.808ZM143.12 18.704C142.256 19.44 141.408 20.192 140.576 20.96C139.744 21.696 138.928 22.512 138.128 23.408C137.296 24.304 136.496 25.296 135.728 26.384C134.96 27.472 134.192 28.688 133.424 30.032C133.232 30.384 132.944 30.672 132.56 30.896C132.208 31.12 131.888 31.184 131.6 31.088C131.344 30.992 131.152 30.832 131.024 30.608C130.928 30.352 130.864 30.08 130.832 29.792C130.832 29.472 130.864 29.168 130.928 28.88C130.992 28.592 131.072 28.352 131.168 28.16C131.616 27.2 132.176 26.176 132.848 25.088C133.552 24 134.352 22.912 135.248 21.824C136.112 20.768 137.072 19.728 138.128 18.704C139.184 17.68 140.304 16.736 141.488 15.872C141.648 15.744 141.936 15.6 142.352 15.44C142.768 15.28 143.136 15.376 143.456 15.728C143.808 16.176 143.952 16.72 143.888 17.36C143.824 17.968 143.568 18.416 143.12 18.704ZM155.696 35.744C155.568 36.704 155.408 37.568 155.216 38.336C155.056 39.072 154.976 39.904 154.976 40.832C156.512 40.48 157.888 40.032 159.104 39.488C160.352 38.912 161.536 38.336 162.656 37.76C163.136 37.504 163.456 37.552 163.616 37.904C163.808 38.288 163.696 38.88 163.28 39.68C162.864 40.416 162.288 41.008 161.552 41.456C160.816 41.904 160.016 42.304 159.152 42.656C158.576 42.912 157.888 43.168 157.088 43.424C156.288 43.648 155.52 43.776 154.784 43.808C154.08 43.84 153.472 43.712 152.96 43.424C152.448 43.104 152.144 42.56 152.048 41.792C151.92 40.576 151.936 39.52 152.096 38.624C152.256 37.728 152.464 36.816 152.72 35.888C152.816 35.504 152.992 35.056 153.248 34.544C153.504 34 153.824 33.728 154.208 33.728C155.264 33.728 155.76 34.4 155.696 35.744ZM161.744 31.52C161.264 31.456 160.864 31.232 160.544 30.848C160.256 30.432 160.112 29.872 160.112 29.168C160.08 28.464 160.08 27.504 160.112 26.288C160.144 25.072 160.192 23.808 160.256 22.496C160.32 21.152 160.4 19.872 160.496 18.656C160.592 17.408 160.688 16.448 160.784 15.776C160.816 15.584 160.864 15.36 160.928 15.104C160.992 14.816 161.072 14.56 161.168 14.336C161.264 14.112 161.392 13.92 161.552 13.76C161.712 13.6 161.92 13.52 162.176 13.52C162.816 13.456 163.248 13.616 163.472 14C163.728 14.384 163.856 14.816 163.856 15.296C163.632 17.216 163.44 19.696 163.28 22.736C163.216 24.272 163.168 25.632 163.136 26.816C163.104 28 163.072 29.008 163.04 29.84C162.976 30.576 162.816 31.04 162.56 31.232C162.336 31.424 162.064 31.52 161.744 31.52ZM142.112 36.416C141.856 35.744 141.568 35.008 141.248 34.208C140.96 33.376 140.656 32.544 140.336 31.712C140.016 30.88 139.696 30.064 139.376 29.264C139.056 28.464 138.752 27.728 138.464 27.056C138.304 26.736 138.208 26.448 138.176 26.192C138.176 25.936 138.208 25.728 138.272 25.568C138.336 25.344 138.432 25.168 138.56 25.04C139.008 24.816 139.488 24.848 140 25.136C140.544 25.392 140.928 25.696 141.152 26.048C141.376 26.432 141.648 26.992 141.968 27.728C142.32 28.464 142.656 29.28 142.976 30.176C143.296 31.072 143.6 31.968 143.888 32.864C144.176 33.76 144.416 34.544 144.608 35.216C144.64 35.408 144.672 35.648 144.704 35.936C144.768 36.224 144.8 36.496 144.8 36.752C144.768 37.008 144.704 37.248 144.608 37.472C144.512 37.696 144.352 37.84 144.128 37.904C143.872 37.968 143.536 37.92 143.12 37.76C142.736 37.6 142.4 37.152 142.112 36.416Z" fill="black"/>
</svg>
